<svg width="580" height="180" viewBox="0 0 580 180" fill="none" xmlns="http://www.w3.org/2000/svg">
<path d="M250.883 44.8108H258.558C258.558 44.8108 258.558 44.9138 258.558 45.1197C258.558 45.8147 258.378 46.2394 258.018 46.3939C257.838 46.4969 257.62 46.5612 257.363 46.5869L255.743 46.6642V65.9311C255.743 68.0933 255.229 69.8695 254.2 71.2595C253.172 72.6495 251.783 73.3445 250.035 73.3445C249.16 73.3445 248.415 73.1128 247.798 72.6495C247.206 72.2119 246.911 71.6971 246.911 71.105C246.911 69.8695 247.541 69.2774 248.8 69.3289C248.852 70.5902 249.482 71.2209 250.69 71.2209C251.462 71.2209 252.027 70.8605 252.387 70.1397C252.773 69.419 252.966 68.1448 252.966 66.3172V46.7414L249.803 46.5097C249.7 45.3771 250.06 44.8108 250.883 44.8108Z" fill="#585759"/>
<path d="M278.657 69.7536C278.657 70.9634 277.86 71.5684 276.266 71.5684C274.672 71.5684 273.746 70.7575 273.489 69.1359C271.844 70.7318 269.864 71.5297 267.55 71.5297C265.775 71.5297 264.361 71.0793 263.307 70.1784C262.279 69.2517 261.764 68.0033 261.764 66.4331C261.764 64.8629 262.343 63.5372 263.5 62.4561C264.657 61.375 266.573 60.8345 269.247 60.8345C270.815 60.8345 272.204 61.0146 273.412 61.375V58.3247C273.412 56.8575 273.039 55.6863 272.294 54.8111C271.574 53.9102 270.507 53.4597 269.092 53.4597C267.678 53.4597 266.663 53.8458 266.045 54.6181C265.454 55.3645 265.12 56.2397 265.043 57.2436C264.426 57.2951 263.911 57.1664 263.5 56.8575C263.089 56.5486 262.883 56.0467 262.883 55.3517C262.883 54.2448 263.448 53.331 264.58 52.6103C265.711 51.8638 267.177 51.4906 268.977 51.4906C270.545 51.4906 272.036 51.8767 273.451 52.6489C274.248 53.0607 274.89 53.7429 275.379 54.6953C275.868 55.6477 276.112 56.806 276.112 58.1703V69.4447L278.657 69.7536ZM273.412 63.6917C272.229 63.0482 270.854 62.7264 269.285 62.7264C267.717 62.7264 266.56 63.0224 265.814 63.6145C265.094 64.2065 264.734 65.0173 264.734 66.047C264.734 67.0766 265.056 67.9003 265.698 68.5181C266.341 69.1101 267.228 69.4061 268.36 69.4061C270.159 69.4061 271.844 68.7111 273.412 67.3211V63.6917Z" fill="#585759"/>
<path d="M286.678 54.6181C287.449 53.7944 288.401 53.0736 289.532 52.4558C290.689 51.8123 291.627 51.4906 292.347 51.4906C293.093 51.4906 293.697 51.6707 294.16 52.0311C294.623 52.3657 294.854 52.9063 294.854 53.6528C294.854 54.9913 294.636 55.9051 294.199 56.3942C293.864 56.6773 293.337 56.7932 292.617 56.7417C292.617 54.8883 292.129 53.9617 291.152 53.9617C289.918 53.9617 288.426 54.8369 286.678 56.5872V69.1359L289.995 69.3675C290.098 70.4229 289.738 70.9506 288.915 70.9506H281.201V70.6417C281.201 70.0239 281.381 69.6378 281.741 69.4834C281.921 69.3804 282.14 69.316 282.397 69.2903L284.017 69.2131V54.1161L281.934 53.8845C281.368 53.833 281.085 53.3053 281.085 52.3014L286.292 51.645L286.562 54.6181H286.678Z" fill="#585759"/>
<path d="M312.953 71.5297C311.256 71.5297 310.343 70.5902 310.214 68.7111C308.337 70.5902 306.319 71.5297 304.159 71.5297C301.999 71.5297 300.199 70.7446 298.759 69.1745C297.345 67.5785 296.6 65.2104 296.522 62.07C296.445 58.9039 297.217 56.3556 298.837 54.425C300.482 52.4687 302.771 51.4906 305.702 51.4906C307.27 51.4906 308.762 51.8252 310.176 52.4945V46.5869L308.17 46.3553C307.553 46.3038 307.245 45.7504 307.245 44.695L312.837 44V69.4061L315.305 69.715C315.254 70.9248 314.47 71.5297 312.953 71.5297ZM310.176 55.4675C308.787 54.2062 307.103 53.5756 305.123 53.5756C303.169 53.5756 301.716 54.3349 300.765 55.8536C299.839 57.3466 299.377 59.2257 299.377 61.4908C299.377 63.756 299.839 65.6222 300.765 67.0895C301.691 68.5309 303.105 69.2517 305.008 69.2517C305.959 69.2517 306.807 69.0586 307.553 68.6725C308.299 68.2864 309.173 67.6686 310.176 66.8192V55.4675Z" fill="#585759"/>
<path d="M325.177 70.9506H317.849V70.6417C317.849 70.0239 318.029 69.6378 318.389 69.4834C318.569 69.3804 318.787 69.316 319.044 69.2903L320.664 69.2131V53.9231L318.659 53.7686C318.042 53.6914 317.733 53.138 317.733 52.1083L323.325 51.4906V69.1359L326.257 69.3675C326.36 70.4229 326 70.9506 325.177 70.9506ZM327.221 46.2008L319.546 50.3322C319.083 50.1006 318.71 49.7273 318.427 49.2125L324.791 44.3089C325.254 44.3604 325.717 44.5792 326.18 44.9653C326.642 45.3514 326.99 45.7632 327.221 46.2008Z" fill="#585759"/>
<path d="M348.859 70.9506H341.685V70.6417C341.685 70.0239 341.865 69.6378 342.225 69.4834C342.405 69.3804 342.623 69.316 342.88 69.2903L344.577 69.2131V59.2128C344.577 55.6091 343.15 53.8072 340.296 53.8072C339.242 53.8072 338.291 54.0132 337.442 54.425C336.594 54.8369 335.629 55.4932 334.55 56.3942V69.1359L337.288 69.3675C337.391 70.4229 337.044 70.9506 336.247 70.9506H328.996V70.6417C328.996 69.818 329.407 69.3675 330.23 69.2903L331.888 69.2131V54.0003L329.883 53.7686C329.266 53.7171 328.957 53.1894 328.957 52.1856L333.932 51.5292L334.434 54.4636H334.55C336.632 52.4816 338.779 51.4906 340.991 51.4906C342.713 51.4906 344.179 52.0955 345.387 53.3053C346.622 54.5151 347.239 56.3813 347.239 58.9039V69.1359L349.938 69.3675C350.041 70.4229 349.681 70.9506 348.859 70.9506Z" fill="#585759"/>
<path d="M379.129 71.5297C377.432 71.5297 376.52 70.5902 376.391 68.7111C374.514 70.5902 372.496 71.5297 370.336 71.5297C368.176 71.5297 366.376 70.7446 364.936 69.1745C363.522 67.5785 362.776 65.2104 362.699 62.07C362.622 58.9039 363.393 56.3556 365.013 54.425C366.659 52.4687 368.947 51.4906 371.879 51.4906C373.447 51.4906 374.938 51.8252 376.352 52.4945V46.5869L374.347 46.3553C373.73 46.3038 373.421 45.7504 373.421 44.695L379.014 44V69.4061L381.482 69.715C381.431 70.9248 380.646 71.5297 379.129 71.5297ZM376.352 55.4675C374.964 54.2062 373.28 53.5756 371.3 53.5756C369.346 53.5756 367.893 54.3349 366.942 55.8536C366.016 57.3466 365.553 59.2257 365.553 61.4908C365.553 63.756 366.016 65.6222 366.942 67.0895C367.867 68.5309 369.282 69.2517 371.184 69.2517C372.136 69.2517 372.984 69.0586 373.73 68.6725C374.475 68.2864 375.35 67.6686 376.352 66.8192V55.4675Z" fill="#585759"/>
<path d="M398.759 60.7958H386.648C386.622 61.0533 386.61 61.4522 386.61 61.9928C386.61 64.1808 387.072 65.9569 387.998 67.3211C388.924 68.6596 390.364 69.3289 392.318 69.3289C394.272 69.3289 396.136 68.6339 397.91 67.2439C398.219 67.5013 398.373 67.8231 398.373 68.2092C398.373 68.9299 397.666 69.6635 396.252 70.41C394.863 71.1565 393.295 71.5297 391.546 71.5297C389.155 71.5297 387.24 70.7446 385.8 69.1745C384.385 67.6043 383.678 65.2104 383.678 61.9928C383.678 58.7752 384.527 56.2269 386.224 54.3478C387.921 52.443 389.927 51.4906 392.241 51.4906C394.555 51.4906 396.226 52.2242 397.255 53.6914C398.283 55.1586 398.784 56.909 398.759 58.9425V60.7958ZM395.943 59.0583C395.943 57.3337 395.609 55.9695 394.94 54.9656C394.272 53.9359 393.295 53.4211 392.009 53.4211C390.749 53.4211 389.669 53.9231 388.769 54.927C387.87 55.9308 387.24 57.308 386.88 59.0583H395.943Z" fill="#585759"/>
<path d="M411.892 70.9506V70.3328C411.892 69.7665 412.149 69.4061 412.663 69.2517C412.792 69.2002 412.933 69.1745 413.088 69.1745L414.862 69.0972V46.7414L412.046 46.5097C411.943 45.3771 412.303 44.8108 413.126 44.8108H429.402V50.255C429.402 51.053 428.836 51.4005 427.705 51.2975L427.319 46.9344L417.639 46.7414V57.0506L425.044 56.5486C425.224 57.501 425.224 58.4277 425.044 59.3286L417.639 58.9039V69.02L427.859 68.7497L428.245 64.657C429.376 64.554 429.942 64.9015 429.942 65.6995V70.9506H411.892Z" fill="#585759"/>
<path d="M444.859 52.0697H449.834C449.885 53.0994 449.5 53.6399 448.677 53.6914L448.446 53.73L441.503 70.9506H439.691L433.211 53.8845L431.707 53.6528C431.63 52.5974 431.964 52.0697 432.71 52.0697H438.881V52.34C438.881 52.5459 438.855 52.7004 438.803 52.8033C438.778 52.8806 438.726 52.9964 438.649 53.1508C438.546 53.4597 438.212 53.6399 437.646 53.6914L436.181 53.8072L440.963 67.2825L445.977 53.8845L443.779 53.6528C443.676 52.5974 444.036 52.0697 444.859 52.0697Z" fill="#585759"/>
<path d="M466.555 60.7958H454.444C454.419 61.0533 454.406 61.4522 454.406 61.9928C454.406 64.1808 454.869 65.9569 455.794 67.3211C456.72 68.6596 458.16 69.3289 460.114 69.3289C462.068 69.3289 463.932 68.6339 465.707 67.2439C466.015 67.5013 466.169 67.8231 466.169 68.2092C466.169 68.9299 465.462 69.6635 464.048 70.41C462.66 71.1565 461.091 71.5297 459.343 71.5297C456.951 71.5297 455.036 70.7446 453.596 69.1745C452.182 67.6043 451.475 65.2104 451.475 61.9928C451.475 58.7752 452.323 56.2269 454.02 54.3478C455.717 52.443 457.723 51.4906 460.037 51.4906C462.351 51.4906 464.022 52.2242 465.051 53.6914C466.079 55.1586 466.581 56.909 466.555 58.9425V60.7958ZM463.74 59.0583C463.74 57.3337 463.405 55.9695 462.737 54.9656C462.068 53.9359 461.091 53.4211 459.806 53.4211C458.546 53.4211 457.466 53.9231 456.566 54.927C455.666 55.9308 455.036 57.308 454.676 59.0583H463.74Z" fill="#585759"/>
<path d="M489.385 70.9506H482.211V70.6417C482.211 70.0239 482.391 69.6378 482.751 69.4834C482.931 69.3804 483.15 69.316 483.407 69.2903L485.104 69.2131V59.2128C485.104 55.6091 483.677 53.8072 480.823 53.8072C479.769 53.8072 478.817 54.0132 477.969 54.425C477.12 54.8369 476.156 55.4932 475.076 56.3942V69.1359L477.815 69.3675C477.918 70.4229 477.57 70.9506 476.773 70.9506H469.522V70.6417C469.522 69.818 469.934 69.3675 470.757 69.2903L472.415 69.2131V54.0003L470.41 53.7686C469.792 53.7171 469.484 53.1894 469.484 52.1856L474.459 51.5292L474.961 54.4636H475.076C477.159 52.4816 479.306 51.4906 481.517 51.4906C483.24 51.4906 484.706 52.0955 485.914 53.3053C487.148 54.5151 487.765 56.3813 487.765 58.9039V69.1359L490.465 69.3675C490.568 70.4229 490.208 70.9506 489.385 70.9506Z" fill="#585759"/>
<path d="M497.688 53.8458V65.1975C497.688 66.639 497.843 67.6815 498.151 68.325C498.485 68.9685 499.102 69.2903 500.002 69.2903C500.928 69.2903 501.699 69.1873 502.317 68.9814C502.934 68.7755 503.692 68.3121 504.592 67.5914C505.055 67.7201 505.286 68.1062 505.286 68.7497C505.286 69.3933 504.656 70.0239 503.396 70.6417C502.162 71.2595 500.967 71.5684 499.81 71.5684C498.01 71.5684 496.763 71.0535 496.068 70.0239C495.374 68.9943 495.027 67.5013 495.027 65.545V53.8458H492.212C492.134 52.6618 492.507 52.0697 493.33 52.0697H495.027V47.475L497.688 46.8186V52.0697H504.901C504.978 52.9192 504.785 53.5112 504.322 53.8458H497.688Z" fill="#585759"/>
<path d="M515.662 53.4983C513.914 53.4983 512.564 54.2577 511.612 55.7764C510.661 57.2951 510.185 59.2385 510.185 61.6067C510.185 63.9491 510.648 65.8668 511.574 67.3597C512.5 68.827 513.837 69.5606 515.585 69.5606C517.334 69.5348 518.683 68.7884 519.635 67.3211C520.586 65.8539 521.062 63.962 521.062 61.6453C521.062 59.3029 520.599 57.3595 519.673 55.815C518.773 54.2448 517.436 53.4726 515.662 53.4983ZM515.894 51.4906C517.848 51.4906 519.609 52.1083 521.177 53.3439C522 54.0132 522.656 54.9913 523.145 56.2783C523.659 57.5654 523.916 59.1098 523.916 60.9117C523.967 64.1035 523.222 66.6776 521.679 68.6339C520.136 70.5645 518.053 71.5297 515.431 71.5297C512.808 71.5297 510.815 70.706 509.453 69.0586C508.09 67.4112 507.383 65.0302 507.331 61.9156C507.306 58.8009 508.064 56.2912 509.607 54.3864C511.175 52.4558 513.271 51.4906 515.894 51.4906Z" fill="#585759"/>
<path d="M526.994 56.8961C527.02 55.223 527.701 53.8973 529.038 52.9192C530.375 51.941 531.828 51.4648 533.396 51.4906C534.991 51.5163 536.302 51.7994 537.33 52.34C538.359 52.8548 538.86 53.627 538.835 54.6567C538.809 55.3517 538.565 55.8536 538.102 56.1625C537.639 56.4714 537.138 56.6001 536.598 56.5486C536.623 55.6477 536.341 54.9141 535.749 54.3478C535.183 53.7815 534.348 53.4855 533.242 53.4597C532.137 53.434 531.211 53.6914 530.465 54.232C529.745 54.7468 529.372 55.416 529.347 56.2397C529.321 57.0634 529.681 57.7327 530.427 58.2475C531.198 58.7366 532.278 59.2514 533.666 59.792C535.055 60.3325 535.993 60.7315 536.482 60.9889C536.996 61.2206 537.549 61.5423 538.14 61.9542C539.246 62.7264 539.773 63.8976 539.722 65.4678C539.696 67.038 539.015 68.4537 537.678 69.715C536.341 70.9506 534.554 71.5555 532.317 71.5297C530.722 71.4783 529.321 71.1436 528.113 70.5259C526.904 69.8823 526.3 69.0071 526.3 67.9003C526.326 67.3083 526.518 66.8449 526.878 66.5103C527.264 66.1499 527.727 65.9826 528.267 66.0083C528.473 67.0637 528.987 67.9132 529.81 68.5567C530.658 69.2002 531.699 69.5348 532.934 69.5606C534.168 69.5606 535.196 69.2774 536.019 68.7111C536.842 68.1191 537.266 67.3469 537.292 66.3945C537.318 65.4421 537.022 64.7213 536.405 64.2322C535.813 63.7432 534.952 63.2927 533.821 62.8808C532.689 62.4433 531.892 62.1344 531.429 61.9542C530.992 61.774 530.44 61.5037 529.771 61.1433C529.128 60.783 528.627 60.4226 528.267 60.0622C527.418 59.1613 526.994 58.1059 526.994 56.8961Z" fill="#585759"/>
<path d="M242.454 136.075H231.607V135.689C231.607 133.92 232.314 132.97 233.728 132.842L235.126 132.745V121.355H221.145V132.649L224.617 132.938C224.809 135.03 224.086 136.075 222.447 136.075H211.6V135.689C211.6 133.92 212.307 132.97 213.721 132.842L215.119 132.745V106.441L211.648 106.152C211.551 105.959 211.567 105.524 211.696 104.849C211.985 103.626 212.692 103.015 213.817 103.015H224.665V103.401C224.665 105.17 223.958 106.12 222.543 106.248L221.145 106.345V118.121H235.126V106.441L231.655 106.152C231.462 104.06 232.186 103.015 233.825 103.015H244.672V103.401C244.672 105.17 243.965 106.12 242.551 106.248L241.153 106.345V132.649L244.624 132.938C244.72 133.131 244.704 133.566 244.576 134.241C244.286 135.464 243.579 136.075 242.454 136.075Z" fill="#585759"/>
<path d="M275.509 136.075H264.228V135.689C264.228 133.92 264.935 132.97 266.349 132.842L267.747 132.745H267.795L265.867 125.747H257.189L255.164 132.649L259.069 132.938C259.166 133.131 259.149 133.566 259.021 134.241C258.732 135.464 258.025 136.075 256.9 136.075H247.209V135.689C247.209 133.92 247.916 132.97 249.331 132.842L251.114 132.745L260.371 103.015C261.753 102.886 263.376 102.886 265.24 103.015L274.304 132.649L277.678 132.938C277.775 133.131 277.759 133.566 277.63 134.241C277.341 135.464 276.634 136.075 275.509 136.075ZM258.105 122.513H264.999L261.672 110.303L258.105 122.513Z" fill="#585759"/>
<path d="M296.247 102.291C299.043 102.291 301.309 102.918 303.045 104.173C304.813 105.396 305.696 106.876 305.696 108.613C305.696 109.9 305.263 110.898 304.395 111.606C303.527 112.314 302.354 112.667 300.875 112.667C300.875 108.517 299.14 106.441 295.669 106.441C292.712 106.441 290.414 107.648 288.774 110.061C287.167 112.442 286.364 115.692 286.364 119.811C286.364 123.897 287.151 127.034 288.726 129.222C290.301 131.41 292.792 132.504 296.199 132.504C299.606 132.504 302.611 131.523 305.214 129.56C305.729 129.882 305.986 130.396 305.986 131.104C305.986 132.423 304.845 133.711 302.563 134.965C300.281 136.188 297.597 136.799 294.512 136.799C289.755 136.799 286.155 135.335 283.712 132.407C281.302 129.447 280.096 125.297 280.096 119.955C280.096 114.614 281.462 110.335 284.194 107.117C286.958 103.9 290.976 102.291 296.247 102.291Z" fill="#585759"/>
<path d="M320.187 136.075H309.339V135.689C309.339 133.92 310.046 132.97 311.461 132.842L312.859 132.745V106.441H312.81L309.388 106.152C309.291 105.959 309.307 105.524 309.436 104.849C309.725 103.626 310.432 103.015 311.557 103.015H322.404V103.401C322.404 105.17 321.697 106.12 320.283 106.248L318.885 106.345V132.649H318.933L322.356 132.938C322.549 135.03 321.826 136.075 320.187 136.075Z" fill="#585759"/>
<path d="M350.491 128.208V136.075H326.241C326.241 134.016 326.948 132.938 328.363 132.842L329.761 132.745V106.441L326.29 106.152C326.193 105.959 326.209 105.524 326.338 104.849C326.627 103.626 327.334 103.015 328.459 103.015H349.575V110.303C349.575 111.75 348.547 112.378 346.49 112.185L346.056 106.49L335.787 106.345V118.314L344.417 117.301C344.77 118.845 344.786 120.438 344.465 122.079L335.787 121.596V132.649L347.02 132.263L347.406 126.326C349.463 126.133 350.491 126.761 350.491 128.208Z" fill="#585759"/>
<path d="M376.199 103.015H384.588C384.588 103.015 384.588 103.143 384.588 103.401C384.588 105.17 383.881 106.12 382.467 106.248L381.069 106.345V135.448C380.104 135.898 378.867 136.124 377.356 136.124L361.013 111.654V132.649L364.484 132.938C364.677 135.03 363.954 136.075 362.315 136.075H353.878V135.689C353.878 133.92 354.585 132.97 355.999 132.842L357.397 132.745V106.441L353.926 106.152C353.83 105.959 353.846 105.524 353.974 104.849C354.263 103.626 354.971 103.015 356.095 103.015H362.411L377.453 125.457V106.441L374.03 106.152C373.837 104.06 374.56 103.015 376.199 103.015Z" fill="#585759"/>
<path d="M389.907 103.015H401.189C412.438 103.015 418.062 108.468 418.062 119.376C418.062 124.782 416.6 128.916 413.675 131.78C410.75 134.644 406.669 136.075 401.43 136.075H387.4C387.304 135.303 387.384 134.595 387.641 133.952C387.931 133.308 388.413 132.954 389.088 132.89L390.823 132.697V106.441H390.775L387.4 106.152C387.368 105.026 387.529 104.221 387.882 103.739C388.236 103.256 388.911 103.015 389.907 103.015ZM399.983 132.745C404.13 133.003 407.135 132.086 408.999 129.994C410.863 127.903 411.795 124.444 411.795 119.617C411.795 114.759 410.831 111.3 408.902 109.241C407.006 107.149 403.888 106.184 399.549 106.345L396.85 106.441V132.552L399.983 132.745Z" fill="#585759"/>
<path d="M448.672 136.075H437.391V135.689C437.391 133.92 438.098 132.97 439.512 132.842L440.91 132.745H440.958L439.03 125.747H430.352L428.327 132.649L432.232 132.938C432.329 133.131 432.313 133.566 432.184 134.241C431.895 135.464 431.188 136.075 430.063 136.075H420.372V135.689C420.372 133.92 421.079 132.97 422.494 132.842L424.277 132.745L433.534 103.015C434.916 102.886 436.539 102.886 438.403 103.015L447.467 132.649L450.842 132.938C450.938 133.131 450.922 133.566 450.793 134.241C450.504 135.464 449.797 136.075 448.672 136.075ZM431.268 122.513H438.162L434.836 110.303L431.268 122.513Z" fill="#585759"/>
<path d="M468.281 103.015H479.37C487.34 103.015 491.326 105.878 491.326 111.606C491.326 114.019 490.603 116.062 489.156 117.735C487.742 119.376 485.653 120.502 482.889 121.114C484.721 124.717 486.682 127.533 488.771 129.56C490.86 131.555 492.885 132.552 494.845 132.552C494.684 133.775 494.17 134.788 493.302 135.593C492.467 136.397 491.406 136.799 490.121 136.799C487.967 136.799 485.717 135.191 483.371 131.973C481.025 128.723 479.193 125.264 477.875 121.596H475.947V132.649L479.996 132.938C480.189 135.03 479.466 136.075 477.827 136.075H466.401C466.401 136.075 466.401 135.947 466.401 135.689C466.401 133.92 467.108 132.97 468.522 132.842L469.92 132.745V106.345L466.401 106.055C466.369 105.251 466.513 104.543 466.835 103.932C467.156 103.32 467.638 103.015 468.281 103.015ZM475.947 106.055V118.556C476.204 118.588 476.557 118.604 477.007 118.604C482.375 118.604 485.058 116.384 485.058 111.943C485.058 109.981 484.528 108.485 483.467 107.455C482.439 106.393 480.928 105.894 478.936 105.959L476.043 106.055H475.947Z" fill="#585759"/>
<path d="M520.971 128.208V136.075H496.721C496.721 134.016 497.428 132.938 498.842 132.842L500.24 132.745V106.441L496.769 106.152C496.673 105.959 496.689 105.524 496.817 104.849C497.107 103.626 497.814 103.015 498.939 103.015H520.055V110.303C520.055 111.75 519.026 112.378 516.969 112.185L516.535 106.49L506.267 106.345V118.314L514.896 117.301C515.25 118.845 515.266 120.438 514.945 122.079L506.267 121.596V132.649L517.5 132.263L517.885 126.326C519.942 126.133 520.971 126.761 520.971 128.208Z" fill="#585759"/>
<path d="M551.355 136.075H540.074V135.689C540.074 133.92 540.781 132.97 542.195 132.842L543.593 132.745H543.642L541.713 125.747H533.035L531.01 132.649L534.915 132.938C535.012 133.131 534.996 133.566 534.867 134.241C534.578 135.464 533.871 136.075 532.746 136.075H523.056V135.689C523.056 133.92 523.763 132.97 525.177 132.842L526.961 132.745L536.217 103.015C537.599 102.886 539.222 102.886 541.086 103.015L550.15 132.649L553.525 132.938C553.621 133.131 553.605 133.566 553.477 134.241C553.187 135.464 552.48 136.075 551.355 136.075ZM533.951 122.513H540.845L537.519 110.303L533.951 122.513Z" fill="#585759"/>
<path d="M580 127.533V136.075H556.184V135.689C556.184 133.92 556.891 132.97 558.305 132.842L559.703 132.745V106.441L556.329 106.152C556.232 105.959 556.248 105.524 556.377 104.849C556.666 103.626 557.373 103.015 558.498 103.015H570.31V103.449C570.31 104.704 569.94 105.557 569.201 106.007C568.912 106.168 568.574 106.248 568.188 106.248L565.826 106.345H565.73V132.649L576.143 132.311L576.914 125.65C578.971 125.457 580 126.085 580 127.533Z" fill="#585759"/>
<path d="M0 165C31.3939 150.429 114.046 130.029 193.501 165C162.107 154.714 79.4552 140.314 0 165Z" fill="#13A021"/>
<path d="M74.4892 33.8571V25.2857L62.5025 31.2857V57.8571L72.7768 63.8571L66.7835 141.857C66.7835 141.857 86.0506 139.286 98.4628 139.286C110.875 139.286 130.142 141.857 130.142 141.857L121.58 62.1429L132.711 57.8571V31.2857L121.58 25.2857V35.5714L113.874 31.2857V20.1429L101.031 15V25.2857H92.4694V15L82.195 20.1429V31.2857L74.4892 33.8571Z" fill="#13A021"/>
<path d="M135.279 141.857L127.574 72.4286L135.279 76.7143V87.8571L144.697 90.4286V81.8571L152.403 85.2857V98.1429L160.965 100.714V90.4286L169.527 95.5714V104.143L176.377 108.429V98.1429L184.083 104.143V153C171.068 148.2 146.124 143.571 135.279 141.857Z" fill="#13A021"/>
<path d="M59.9339 141.857L66.7835 72.4286L59.9339 76.7143V87.8571L51.3719 90.4286V81.8571L42.8099 85.2857V95.5714L35.1041 98.1429V90.4286L26.5421 95.5714V106.714L17.9802 108.429V100.714L11.1306 104.143V153C28.2545 146.143 50.8011 142.714 59.9339 141.857Z" fill="#13A021"/>
<path d="M135.279 141.857L127.574 72.4286L135.279 76.7143V87.8571L144.697 90.4286V81.8571L152.403 85.2857V98.1429L160.965 100.714V90.4286L169.527 95.5714V104.143L176.377 108.429V98.1429L184.083 104.143V153C171.068 148.2 146.124 143.571 135.279 141.857Z" fill="#585759"/>
<path d="M96.7504 25.2857V139.301C109.163 139.301 130.142 141.857 130.142 141.857L121.58 62.1429L132.711 57.8571V31.2857L121.58 25.2857V35.5714L113.874 31.2857V20.1429L101.031 15V25.2857H96.7504Z" fill="#585759"/>
</svg>
