<svg width="250" height="250" viewBox="0 0 250 250" fill="none" xmlns="http://www.w3.org/2000/svg">
<path d="M65.0361 191.568H68.2201C68.2201 191.568 68.2201 191.611 68.2201 191.696C68.2201 191.984 68.1454 192.16 67.9961 192.224C67.9214 192.267 67.8307 192.293 67.7241 192.304L67.0521 192.336V200.32C67.0521 201.216 66.8387 201.952 66.4121 202.528C65.9854 203.104 65.4094 203.392 64.6841 203.392C64.3214 203.392 64.0121 203.296 63.7561 203.104C63.5107 202.923 63.3881 202.709 63.3881 202.464C63.3881 201.952 63.6494 201.707 64.1721 201.728C64.1934 202.251 64.4547 202.512 64.9561 202.512C65.2761 202.512 65.5107 202.363 65.6601 202.064C65.8201 201.765 65.9001 201.237 65.9001 200.48V192.368L64.5881 192.272C64.5454 191.803 64.6947 191.568 65.0361 191.568ZM76.5581 201.904C76.5581 202.405 76.2274 202.656 75.5661 202.656C74.9047 202.656 74.5207 202.32 74.4141 201.648C73.7314 202.309 72.9101 202.64 71.9501 202.64C71.2141 202.64 70.6274 202.453 70.1901 202.08C69.7634 201.696 69.5501 201.179 69.5501 200.528C69.5501 199.877 69.7901 199.328 70.2701 198.88C70.7501 198.432 71.5447 198.208 72.6541 198.208C73.3047 198.208 73.8807 198.283 74.3821 198.432V197.168C74.3821 196.56 74.2274 196.075 73.9181 195.712C73.6194 195.339 73.1767 195.152 72.5901 195.152C72.0034 195.152 71.5821 195.312 71.3261 195.632C71.0807 195.941 70.9421 196.304 70.9101 196.72C70.6541 196.741 70.4407 196.688 70.2701 196.56C70.0994 196.432 70.0141 196.224 70.0141 195.936C70.0141 195.477 70.2487 195.099 70.7181 194.8C71.1874 194.491 71.7954 194.336 72.5421 194.336C73.1927 194.336 73.8114 194.496 74.3981 194.816C74.7287 194.987 74.9954 195.269 75.1981 195.664C75.4007 196.059 75.5021 196.539 75.5021 197.104V201.776L76.5581 201.904ZM74.3821 199.392C73.8914 199.125 73.3207 198.992 72.6701 198.992C72.0194 198.992 71.5394 199.115 71.2301 199.36C70.9314 199.605 70.7821 199.941 70.7821 200.368C70.7821 200.795 70.9154 201.136 71.1821 201.392C71.4487 201.637 71.8167 201.76 72.2861 201.76C73.0327 201.76 73.7314 201.472 74.3821 200.896V199.392ZM79.8853 195.632C80.2053 195.291 80.6 194.992 81.0693 194.736C81.5493 194.469 81.9386 194.336 82.2373 194.336C82.5466 194.336 82.7973 194.411 82.9893 194.56C83.1813 194.699 83.2773 194.923 83.2773 195.232C83.2773 195.787 83.1866 196.165 83.0053 196.368C82.8666 196.485 82.648 196.533 82.3493 196.512C82.3493 195.744 82.1466 195.36 81.7413 195.36C81.2293 195.36 80.6106 195.723 79.8853 196.448V201.648L81.2613 201.744C81.304 202.181 81.1546 202.4 80.8133 202.4H77.6133V202.272C77.6133 202.016 77.688 201.856 77.8373 201.792C77.912 201.749 78.0026 201.723 78.1093 201.712L78.7813 201.68V195.424L77.9173 195.328C77.6826 195.307 77.5653 195.088 77.5653 194.672L79.7253 194.4L79.8373 195.632H79.8853ZM90.7853 202.64C90.0813 202.64 89.7026 202.251 89.6493 201.472C88.8706 202.251 88.0333 202.64 87.1373 202.64C86.2413 202.64 85.4946 202.315 84.8973 201.664C84.3106 201.003 84.0013 200.021 83.9693 198.72C83.9373 197.408 84.2573 196.352 84.9293 195.552C85.612 194.741 86.5613 194.336 87.7773 194.336C88.428 194.336 89.0466 194.475 89.6333 194.752V192.304L88.8013 192.208C88.5453 192.187 88.4173 191.957 88.4173 191.52L90.7373 191.232V201.76L91.7613 201.888C91.74 202.389 91.4146 202.64 90.7853 202.64ZM89.6333 195.984C89.0573 195.461 88.3586 195.2 87.5373 195.2C86.7266 195.2 86.124 195.515 85.7293 196.144C85.3453 196.763 85.1533 197.541 85.1533 198.48C85.1533 199.419 85.3453 200.192 85.7293 200.8C86.1133 201.397 86.7 201.696 87.4893 201.696C87.884 201.696 88.236 201.616 88.5453 201.456C88.8546 201.296 89.2173 201.04 89.6333 200.688V195.984ZM95.8564 202.4H92.8164V202.272C92.8164 202.016 92.8911 201.856 93.0404 201.792C93.1151 201.749 93.2058 201.723 93.3124 201.712L93.9844 201.68V195.344L93.1524 195.28C92.8964 195.248 92.7684 195.019 92.7684 194.592L95.0884 194.336V201.648L96.3044 201.744C96.3471 202.181 96.1978 202.4 95.8564 202.4ZM96.7044 192.144L93.5204 193.856C93.3284 193.76 93.1738 193.605 93.0564 193.392L95.6964 191.36C95.8884 191.381 96.0804 191.472 96.2724 191.632C96.4644 191.792 96.6084 191.963 96.7044 192.144ZM105.681 202.4H102.705V202.272C102.705 202.016 102.779 201.856 102.929 201.792C103.003 201.749 103.094 201.723 103.201 201.712L103.905 201.68V197.536C103.905 196.043 103.313 195.296 102.129 195.296C101.691 195.296 101.297 195.381 100.945 195.552C100.593 195.723 100.193 195.995 99.7447 196.368V201.648L100.881 201.744C100.923 202.181 100.779 202.4 100.449 202.4H97.4407V202.272C97.4407 201.931 97.6114 201.744 97.9527 201.712L98.6407 201.68V195.376L97.8087 195.28C97.5527 195.259 97.4247 195.04 97.4247 194.624L99.4887 194.352L99.6967 195.568H99.7447C100.609 194.747 101.499 194.336 102.417 194.336C103.131 194.336 103.739 194.587 104.241 195.088C104.753 195.589 105.009 196.363 105.009 197.408V201.648L106.129 201.744C106.171 202.181 106.022 202.4 105.681 202.4ZM118.238 202.64C117.534 202.64 117.156 202.251 117.102 201.472C116.324 202.251 115.486 202.64 114.59 202.64C113.694 202.64 112.948 202.315 112.35 201.664C111.764 201.003 111.454 200.021 111.422 198.72C111.39 197.408 111.71 196.352 112.382 195.552C113.065 194.741 114.014 194.336 115.23 194.336C115.881 194.336 116.5 194.475 117.086 194.752V192.304L116.254 192.208C115.998 192.187 115.87 191.957 115.87 191.52L118.19 191.232V201.76L119.214 201.888C119.193 202.389 118.868 202.64 118.238 202.64ZM117.086 195.984C116.51 195.461 115.812 195.2 114.99 195.2C114.18 195.2 113.577 195.515 113.182 196.144C112.798 196.763 112.606 197.541 112.606 198.48C112.606 199.419 112.798 200.192 113.182 200.8C113.566 201.397 114.153 201.696 114.942 201.696C115.337 201.696 115.689 201.616 115.998 201.456C116.308 201.296 116.67 201.04 117.086 200.688V195.984ZM126.382 198.192H121.358C121.347 198.299 121.342 198.464 121.342 198.688C121.342 199.595 121.534 200.331 121.918 200.896C122.302 201.451 122.899 201.728 123.71 201.728C124.52 201.728 125.294 201.44 126.03 200.864C126.158 200.971 126.222 201.104 126.222 201.264C126.222 201.563 125.928 201.867 125.342 202.176C124.766 202.485 124.115 202.64 123.39 202.64C122.398 202.64 121.603 202.315 121.006 201.664C120.419 201.013 120.126 200.021 120.126 198.688C120.126 197.355 120.478 196.299 121.182 195.52C121.886 194.731 122.718 194.336 123.678 194.336C124.638 194.336 125.331 194.64 125.758 195.248C126.184 195.856 126.392 196.581 126.382 197.424V198.192ZM125.214 197.472C125.214 196.757 125.075 196.192 124.798 195.776C124.52 195.349 124.115 195.136 123.582 195.136C123.059 195.136 122.611 195.344 122.238 195.76C121.864 196.176 121.603 196.747 121.454 197.472H125.214ZM131.83 202.4V202.144C131.83 201.909 131.936 201.76 132.15 201.696C132.203 201.675 132.262 201.664 132.326 201.664L133.062 201.632V192.368L131.894 192.272C131.851 191.803 132 191.568 132.342 191.568H139.094V193.824C139.094 194.155 138.859 194.299 138.39 194.256L138.23 192.448L134.214 192.368V196.64L137.286 196.432C137.36 196.827 137.36 197.211 137.286 197.584L134.214 197.408V201.6L138.454 201.488L138.614 199.792C139.083 199.749 139.318 199.893 139.318 200.224V202.4H131.83ZM145.506 194.576H147.57C147.591 195.003 147.431 195.227 147.09 195.248L146.994 195.264L144.114 202.4H143.362L140.674 195.328L140.05 195.232C140.018 194.795 140.157 194.576 140.466 194.576H143.026V194.688C143.026 194.773 143.015 194.837 142.994 194.88C142.983 194.912 142.962 194.96 142.93 195.024C142.887 195.152 142.749 195.227 142.514 195.248L141.906 195.296L143.89 200.88L145.97 195.328L145.058 195.232C145.015 194.795 145.165 194.576 145.506 194.576ZM154.507 198.192H149.483C149.472 198.299 149.467 198.464 149.467 198.688C149.467 199.595 149.659 200.331 150.043 200.896C150.427 201.451 151.024 201.728 151.835 201.728C152.645 201.728 153.419 201.44 154.155 200.864C154.283 200.971 154.347 201.104 154.347 201.264C154.347 201.563 154.053 201.867 153.467 202.176C152.891 202.485 152.24 202.64 151.515 202.64C150.523 202.64 149.728 202.315 149.131 201.664C148.544 201.013 148.251 200.021 148.251 198.688C148.251 197.355 148.603 196.299 149.307 195.52C150.011 194.731 150.843 194.336 151.803 194.336C152.763 194.336 153.456 194.64 153.883 195.248C154.309 195.856 154.517 196.581 154.507 197.424V198.192ZM153.339 197.472C153.339 196.757 153.2 196.192 152.923 195.776C152.645 195.349 152.24 195.136 151.707 195.136C151.184 195.136 150.736 195.344 150.363 195.76C149.989 196.176 149.728 196.747 149.579 197.472H153.339ZM163.978 202.4H161.002V202.272C161.002 202.016 161.076 201.856 161.226 201.792C161.3 201.749 161.391 201.723 161.498 201.712L162.202 201.68V197.536C162.202 196.043 161.61 195.296 160.426 195.296C159.988 195.296 159.594 195.381 159.242 195.552C158.89 195.723 158.49 195.995 158.042 196.368V201.648L159.178 201.744C159.22 202.181 159.076 202.4 158.746 202.4H155.738V202.272C155.738 201.931 155.908 201.744 156.25 201.712L156.938 201.68V195.376L156.106 195.28C155.85 195.259 155.722 195.04 155.722 194.624L157.786 194.352L157.994 195.568H158.042C158.906 194.747 159.796 194.336 160.714 194.336C161.428 194.336 162.036 194.587 162.538 195.088C163.05 195.589 163.306 196.363 163.306 197.408V201.648L164.426 201.744C164.468 202.181 164.319 202.4 163.978 202.4ZM167.422 195.312V200.016C167.422 200.613 167.486 201.045 167.614 201.312C167.753 201.579 168.009 201.712 168.382 201.712C168.766 201.712 169.086 201.669 169.342 201.584C169.598 201.499 169.913 201.307 170.286 201.008C170.478 201.061 170.574 201.221 170.574 201.488C170.574 201.755 170.313 202.016 169.79 202.272C169.278 202.528 168.782 202.656 168.302 202.656C167.555 202.656 167.038 202.443 166.75 202.016C166.462 201.589 166.318 200.971 166.318 200.16V195.312H165.15C165.118 194.821 165.273 194.576 165.614 194.576H166.318V192.672L167.422 192.4V194.576H170.414C170.446 194.928 170.366 195.173 170.174 195.312H167.422ZM174.878 195.168C174.153 195.168 173.593 195.483 173.198 196.112C172.804 196.741 172.606 197.547 172.606 198.528C172.606 199.499 172.798 200.293 173.182 200.912C173.566 201.52 174.121 201.824 174.846 201.824C175.572 201.813 176.132 201.504 176.526 200.896C176.921 200.288 177.118 199.504 177.118 198.544C177.118 197.573 176.926 196.768 176.542 196.128C176.169 195.477 175.614 195.157 174.878 195.168ZM174.974 194.336C175.785 194.336 176.516 194.592 177.166 195.104C177.508 195.381 177.78 195.787 177.982 196.32C178.196 196.853 178.302 197.493 178.302 198.24C178.324 199.563 178.014 200.629 177.374 201.44C176.734 202.24 175.87 202.64 174.782 202.64C173.694 202.64 172.868 202.299 172.302 201.616C171.737 200.933 171.444 199.947 171.422 198.656C171.412 197.365 171.726 196.325 172.366 195.536C173.017 194.736 173.886 194.336 174.974 194.336ZM179.579 196.576C179.59 195.883 179.873 195.333 180.427 194.928C180.982 194.523 181.585 194.325 182.235 194.336C182.897 194.347 183.441 194.464 183.867 194.688C184.294 194.901 184.502 195.221 184.491 195.648C184.481 195.936 184.379 196.144 184.187 196.272C183.995 196.4 183.787 196.453 183.563 196.432C183.574 196.059 183.457 195.755 183.211 195.52C182.977 195.285 182.63 195.163 182.171 195.152C181.713 195.141 181.329 195.248 181.019 195.472C180.721 195.685 180.566 195.963 180.555 196.304C180.545 196.645 180.694 196.923 181.003 197.136C181.323 197.339 181.771 197.552 182.347 197.776C182.923 198 183.313 198.165 183.515 198.272C183.729 198.368 183.958 198.501 184.203 198.672C184.662 198.992 184.881 199.477 184.859 200.128C184.849 200.779 184.566 201.365 184.011 201.888C183.457 202.4 182.715 202.651 181.787 202.64C181.126 202.619 180.545 202.48 180.043 202.224C179.542 201.957 179.291 201.595 179.291 201.136C179.302 200.891 179.382 200.699 179.531 200.56C179.691 200.411 179.883 200.341 180.107 200.352C180.193 200.789 180.406 201.141 180.747 201.408C181.099 201.675 181.531 201.813 182.043 201.824C182.555 201.824 182.982 201.707 183.323 201.472C183.665 201.227 183.841 200.907 183.851 200.512C183.862 200.117 183.739 199.819 183.483 199.616C183.238 199.413 182.881 199.227 182.411 199.056C181.942 198.875 181.611 198.747 181.419 198.672C181.238 198.597 181.009 198.485 180.731 198.336C180.465 198.187 180.257 198.037 180.107 197.888C179.755 197.515 179.579 197.077 179.579 196.576Z" fill="white"/>
<path d="M61.5395 227.8H57.0395V227.64C57.0395 226.907 57.3328 226.513 57.9195 226.46L58.4995 226.42V221.7H52.6995V226.38L54.1395 226.5C54.2195 227.367 53.9195 227.8 53.2395 227.8H48.7395V227.64C48.7395 226.907 49.0328 226.513 49.6195 226.46L50.1995 226.42V215.52L48.7595 215.4C48.7195 215.32 48.7261 215.14 48.7795 214.86C48.8995 214.353 49.1928 214.1 49.6595 214.1H54.1595V214.26C54.1595 214.993 53.8661 215.387 53.2795 215.44L52.6995 215.48V220.36H58.4995V215.52L57.0595 215.4C56.9795 214.533 57.2795 214.1 57.9595 214.1H62.4595V214.26C62.4595 214.993 62.1661 215.387 61.5795 215.44L60.9995 215.48V226.38L62.4395 226.5C62.4795 226.58 62.4728 226.76 62.4195 227.04C62.2995 227.547 62.0061 227.8 61.5395 227.8ZM75.252 227.8H70.572V227.64C70.572 226.907 70.8653 226.513 71.452 226.46L72.032 226.42H72.052L71.252 223.52H67.652L66.812 226.38L68.432 226.5C68.472 226.58 68.4653 226.76 68.412 227.04C68.292 227.547 67.9986 227.8 67.532 227.8H63.512V227.64C63.512 226.907 63.8053 226.513 64.392 226.46L65.132 226.42L68.972 214.1C69.5453 214.047 70.2186 214.047 70.992 214.1L74.752 226.38L76.152 226.5C76.192 226.58 76.1853 226.76 76.132 227.04C76.012 227.547 75.7186 227.8 75.252 227.8ZM68.032 222.18H70.892L69.512 217.12L68.032 222.18ZM83.8551 213.8C85.0151 213.8 85.9551 214.06 86.6751 214.58C87.4084 215.087 87.7751 215.7 87.7751 216.42C87.7751 216.953 87.5951 217.367 87.2351 217.66C86.8751 217.953 86.3884 218.1 85.7751 218.1C85.7751 216.38 85.0551 215.52 83.6151 215.52C82.3884 215.52 81.4351 216.02 80.7551 217.02C80.0884 218.007 79.7551 219.353 79.7551 221.06C79.7551 222.753 80.0817 224.053 80.7351 224.96C81.3884 225.867 82.4217 226.32 83.8351 226.32C85.2484 226.32 86.4951 225.913 87.5751 225.1C87.7884 225.233 87.8951 225.447 87.8951 225.74C87.8951 226.287 87.4217 226.82 86.4751 227.34C85.5284 227.847 84.4151 228.1 83.1351 228.1C81.1617 228.1 79.6684 227.493 78.6551 226.28C77.6551 225.053 77.1551 223.333 77.1551 221.12C77.1551 218.907 77.7217 217.133 78.8551 215.8C80.0017 214.467 81.6684 213.8 83.8551 213.8ZM93.7863 227.8H89.2863V227.64C89.2863 226.907 89.5797 226.513 90.1663 226.46L90.7463 226.42V215.52H90.7263L89.3063 215.4C89.2663 215.32 89.273 215.14 89.3263 214.86C89.4463 214.353 89.7397 214.1 90.2063 214.1H94.7063V214.26C94.7063 214.993 94.413 215.387 93.8263 215.44L93.2463 215.48V226.38H93.2663L94.6863 226.5C94.7663 227.367 94.4663 227.8 93.7863 227.8ZM106.358 224.54V227.8H96.298C96.298 226.947 96.5914 226.5 97.178 226.46L97.758 226.42V215.52L96.318 215.4C96.278 215.32 96.2847 215.14 96.338 214.86C96.458 214.353 96.7514 214.1 97.218 214.1H105.978V217.12C105.978 217.72 105.551 217.98 104.698 217.9L104.518 215.54L100.258 215.48V220.44L103.838 220.02C103.985 220.66 103.991 221.32 103.858 222L100.258 221.8V226.38L104.918 226.22L105.078 223.76C105.931 223.68 106.358 223.94 106.358 224.54ZM117.023 214.1H120.503C120.503 214.1 120.503 214.153 120.503 214.26C120.503 214.993 120.21 215.387 119.623 215.44L119.043 215.48V227.54C118.643 227.727 118.13 227.82 117.503 227.82L110.723 217.68V226.38L112.163 226.5C112.243 227.367 111.943 227.8 111.263 227.8H107.763V227.64C107.763 226.907 108.056 226.513 108.643 226.46L109.223 226.42V215.52L107.783 215.4C107.743 215.32 107.75 215.14 107.803 214.86C107.923 214.353 108.216 214.1 108.683 214.1H111.303L117.543 223.4V215.52L116.123 215.4C116.043 214.533 116.343 214.1 117.023 214.1ZM122.71 214.1H127.39C132.056 214.1 134.39 216.36 134.39 220.88C134.39 223.12 133.783 224.833 132.57 226.02C131.356 227.207 129.663 227.8 127.49 227.8H121.67C121.63 227.48 121.663 227.187 121.77 226.92C121.89 226.653 122.09 226.507 122.37 226.48L123.09 226.4V215.52H123.07L121.67 215.4C121.656 214.933 121.723 214.6 121.87 214.4C122.016 214.2 122.296 214.1 122.71 214.1ZM126.89 226.42C128.61 226.527 129.856 226.147 130.63 225.28C131.403 224.413 131.79 222.98 131.79 220.98C131.79 218.967 131.39 217.533 130.59 216.68C129.803 215.813 128.51 215.413 126.71 215.48L125.59 215.52V226.34L126.89 226.42ZM147.088 227.8H142.408V227.64C142.408 226.907 142.701 226.513 143.288 226.46L143.868 226.42H143.888L143.088 223.52H139.488L138.648 226.38L140.268 226.5C140.308 226.58 140.301 226.76 140.248 227.04C140.128 227.547 139.835 227.8 139.368 227.8H135.348V227.64C135.348 226.907 135.641 226.513 136.228 226.46L136.968 226.42L140.808 214.1C141.381 214.047 142.055 214.047 142.828 214.1L146.588 226.38L147.988 226.5C148.028 226.58 148.021 226.76 147.968 227.04C147.848 227.547 147.555 227.8 147.088 227.8ZM139.868 222.18H142.728L141.348 217.12L139.868 222.18ZM155.223 214.1H159.823C163.129 214.1 164.783 215.287 164.783 217.66C164.783 218.66 164.483 219.507 163.883 220.2C163.296 220.88 162.429 221.347 161.283 221.6C162.043 223.093 162.856 224.26 163.723 225.1C164.589 225.927 165.429 226.34 166.243 226.34C166.176 226.847 165.963 227.267 165.603 227.6C165.256 227.933 164.816 228.1 164.283 228.1C163.389 228.1 162.456 227.433 161.483 226.1C160.509 224.753 159.749 223.32 159.203 221.8H158.403V226.38L160.083 226.5C160.163 227.367 159.863 227.8 159.183 227.8H154.443C154.443 227.8 154.443 227.747 154.443 227.64C154.443 226.907 154.736 226.513 155.323 226.46L155.903 226.42V215.48L154.443 215.36C154.429 215.027 154.489 214.733 154.623 214.48C154.756 214.227 154.956 214.1 155.223 214.1ZM158.403 215.36V220.54C158.509 220.553 158.656 220.56 158.843 220.56C161.069 220.56 162.183 219.64 162.183 217.8C162.183 216.987 161.963 216.367 161.523 215.94C161.096 215.5 160.469 215.293 159.643 215.32L158.443 215.36H158.403ZM177.081 224.54V227.8H167.021C167.021 226.947 167.314 226.5 167.901 226.46L168.481 226.42V215.52L167.041 215.4C167.001 215.32 167.007 215.14 167.061 214.86C167.181 214.353 167.474 214.1 167.941 214.1H176.701V217.12C176.701 217.72 176.274 217.98 175.421 217.9L175.241 215.54L170.981 215.48V220.44L174.561 220.02C174.707 220.66 174.714 221.32 174.581 222L170.981 221.8V226.38L175.641 226.22L175.801 223.76C176.654 223.68 177.081 223.94 177.081 224.54ZM189.686 227.8H185.006V227.64C185.006 226.907 185.299 226.513 185.886 226.46L186.466 226.42H186.486L185.686 223.52H182.086L181.246 226.38L182.866 226.5C182.906 226.58 182.899 226.76 182.846 227.04C182.726 227.547 182.432 227.8 181.966 227.8H177.946V227.64C177.946 226.907 178.239 226.513 178.826 226.46L179.566 226.42L183.406 214.1C183.979 214.047 184.652 214.047 185.426 214.1L189.186 226.38L190.586 226.5C190.626 226.58 190.619 226.76 190.566 227.04C190.446 227.547 190.152 227.8 189.686 227.8ZM182.466 222.18H185.326L183.946 217.12L182.466 222.18ZM201.569 224.26V227.8H191.689V227.64C191.689 226.907 191.982 226.513 192.569 226.46L193.149 226.42V215.52L191.749 215.4C191.709 215.32 191.715 215.14 191.769 214.86C191.889 214.353 192.182 214.1 192.649 214.1H197.549V214.28C197.549 214.8 197.395 215.153 197.089 215.34C196.969 215.407 196.829 215.44 196.669 215.44L195.689 215.48H195.649V226.38L199.969 226.24L200.289 223.48C201.142 223.4 201.569 223.66 201.569 224.26Z" fill="white"/>
<path d="M15.2 174.2C50.6514 157.763 143.985 134.752 233.71 174.2C198.258 162.598 104.924 146.354 15.2 174.2Z" fill="white" fill-opacity="0.6"/>
<path d="M99.3166 26.2709V16.6023L85.7806 23.3703V53.3429L97.3829 60.1109L90.6149 148.095C90.6149 148.095 112.372 145.194 126.389 145.194C140.405 145.194 162.162 148.095 162.162 148.095L152.494 58.1771L165.063 53.3429V23.3703L152.494 16.6023V28.2046L143.792 23.3703V10.8011L129.289 5V16.6023H119.621V5L108.018 10.8011V23.3703L99.3166 26.2709Z" fill="white" fill-opacity="0.6"/>
<path d="M167.963 148.095L159.262 69.7794L167.963 74.6137V87.1829L178.599 90.0834V80.4149L187.301 84.2823V98.7851L196.969 101.686V90.0834L206.638 95.8846V105.553L214.373 110.387V98.7851L223.074 105.553V160.664C208.378 155.25 180.21 150.029 167.963 148.095Z" fill="white" fill-opacity="0.6"/>
<path d="M82.88 148.095L90.6149 69.7794L82.88 74.6137V87.1829L73.2114 90.0834V80.4149L63.5429 84.2823V95.8846L54.8411 98.7851V90.0834L45.1726 95.8846V108.454L35.504 110.387V101.686L27.7691 105.553V160.664C47.1063 152.929 72.5669 149.062 82.88 148.095Z" fill="white" fill-opacity="0.6"/>
<path d="M167.963 148.095L159.262 69.7794L167.963 74.6137V87.1829L178.599 90.0834V80.4149L187.301 84.2823V98.7852L196.969 101.686V90.0834L206.638 95.8846V105.553L214.373 110.387V98.7852L223.074 105.553V160.664C208.378 155.25 180.21 150.029 167.963 148.095Z" fill="white"/>
<path d="M124.455 16.6023V145.211C138.471 145.211 162.162 148.095 162.162 148.095L152.494 58.1771L165.063 53.3429V23.3703L152.494 16.6023V28.2046L143.792 23.3703V10.8011L129.289 5V16.6023H124.455Z" fill="white"/>
</svg>
